<svg xmlns="http://www.w3.org/2000/svg" viewBox="0 0 60 60">
  <defs>
    <style>
      .cls-1 {
        fill: #e70068;
      }
    </style>
  </defs>
  <path id="Path_115" data-name="Path 115" class="cls-1" d="M9.313,32.761V28.577a1.126,1.126,0,0,1,1.129-1.129h4.184a1.126,1.126,0,0,1,1.129,1.129v4.184a1.126,1.126,0,0,1-1.129,1.129H10.442A1.142,1.142,0,0,1,9.313,32.761Zm9.877,1.117h4.184A1.126,1.126,0,0,0,24.5,32.748V28.564a1.126,1.126,0,0,0-1.129-1.129H19.19a1.126,1.126,0,0,0-1.129,1.129v4.184A1.142,1.142,0,0,0,19.19,33.877Zm8.748,0h4.184a1.126,1.126,0,0,0,1.129-1.129V28.564a1.126,1.126,0,0,0-1.129-1.129H27.939a1.126,1.126,0,0,0-1.129,1.129v4.184A1.142,1.142,0,0,0,27.939,33.877ZM19.19,42.4h4.184A1.126,1.126,0,0,0,24.5,41.276V37.092a1.126,1.126,0,0,0-1.129-1.129H19.19a1.126,1.126,0,0,0-1.129,1.129v4.184A1.142,1.142,0,0,0,19.19,42.4Zm8.748,0h4.184a1.126,1.126,0,0,0,1.129-1.129V37.092a1.126,1.126,0,0,0-1.129-1.129H27.939a1.126,1.126,0,0,0-1.129,1.129v4.184A1.142,1.142,0,0,0,27.939,42.4Zm8.761,0h4.184a1.126,1.126,0,0,0,1.129-1.129V37.092a1.126,1.126,0,0,0-1.129-1.129H36.7a1.126,1.126,0,0,0-1.129,1.129v4.184A1.126,1.126,0,0,0,36.7,42.4Zm-26.258,0h4.184a1.126,1.126,0,0,0,1.129-1.129V37.092a1.126,1.126,0,0,0-1.129-1.129H10.442a1.126,1.126,0,0,0-1.129,1.129v4.184A1.126,1.126,0,0,0,10.442,42.4Zm17.5,8.515h4.184a1.126,1.126,0,0,0,1.129-1.129V45.607a1.126,1.126,0,0,0-1.129-1.129H27.939a1.126,1.126,0,0,0-1.129,1.129v4.184A1.142,1.142,0,0,0,27.939,50.92Zm-8.748,0h4.184A1.126,1.126,0,0,0,24.5,49.791V45.607a1.126,1.126,0,0,0-1.129-1.129H19.19a1.126,1.126,0,0,0-1.129,1.129v4.184A1.142,1.142,0,0,0,19.19,50.92ZM36.7,33.877h4.184a1.126,1.126,0,0,0,1.129-1.129V28.564a1.126,1.126,0,0,0-1.129-1.129H36.7a1.126,1.126,0,0,0-1.129,1.129v4.184A1.126,1.126,0,0,0,36.7,33.877ZM45.448,42.4h4.184a1.126,1.126,0,0,0,1.129-1.129V37.092a1.126,1.126,0,0,0-1.129-1.129H45.448a1.126,1.126,0,0,0-1.129,1.129v4.184A1.142,1.142,0,0,0,45.448,42.4ZM36.7,50.92h4.184a1.126,1.126,0,0,0,1.129-1.129V45.607a1.126,1.126,0,0,0-1.129-1.129H36.7a1.126,1.126,0,0,0-1.129,1.129v4.184A1.126,1.126,0,0,0,36.7,50.92ZM0,53.436v-40.4A6.572,6.572,0,0,1,6.564,6.466h7.362V2.393A2.388,2.388,0,0,1,16.319,0h3.742a2.388,2.388,0,0,1,2.393,2.393V6.454H37.546V2.393A2.388,2.388,0,0,1,39.939,0h3.742a2.388,2.388,0,0,1,2.393,2.393V6.454h7.362A6.572,6.572,0,0,1,60,13.018V53.436A6.572,6.572,0,0,1,53.436,60H6.564A6.572,6.572,0,0,1,0,53.436Zm5.08,0a1.5,1.5,0,0,0,1.5,1.5H53.436a1.5,1.5,0,0,0,1.5-1.5V23.509H5.08Z"/>
</svg>
