<svg xmlns="http://www.w3.org/2000/svg" viewBox="0 0 20 20">
  <defs>
    <style>
      .cls-1 {
        fill: #fffab9;
      }
    </style>
  </defs>
  <g id="card-payment" transform="translate(0 0)">
    <g id="Group_273" data-name="Group 273" transform="translate(0 0)">
      <g id="Group_272" data-name="Group 272" transform="translate(0 0)">
        <path id="Path_89" data-name="Path 89" class="cls-1" d="M99.878,213.333l-5.313,0a5.747,5.747,0,0,1,2.6,3.118,2.079,2.079,0,0,1-.553,1.936,2.939,2.939,0,0,1-2.144.853,6.071,6.071,0,0,1-3.2-1.148,6.317,6.317,0,0,0-2.5-1.126c-.1-.01-.2-.014-.3-.019a4.917,4.917,0,0,1-3.081-1.149c-.022-.016-.038-.035-.059-.052v4.4a.454.454,0,0,0,.455.455h15.455a.454.454,0,0,0,.455-.455v-5A1.82,1.82,0,0,0,99.878,213.333Z" transform="translate(-81.697 -204.242)"/>
        <path id="Path_90" data-name="Path 90" class="cls-1" d="M4.229,10.825a3.972,3.972,0,0,0,2.559.973c.118.006.237.011.363.023a7.206,7.206,0,0,1,2.929,1.285,5.143,5.143,0,0,0,2.681.985,2.046,2.046,0,0,0,1.5-.583,1.18,1.18,0,0,0,.309-1.115c-.236-1.153-1.886-2.474-2.705-2.809A6.927,6.927,0,0,1,9.094,7.8a2.494,2.494,0,0,1,.547-.3,3.475,3.475,0,0,0,.315-.151c.308.119.7.237.942.308l.095.239a.453.453,0,0,0,.422.287h3.131a.456.456,0,0,0,.4-.663c-.527-2.665-.99-3.133-1.143-3.288-.688-.7-2.763-1.325-5.2-2.015-.511-.145-.957-.271-1.273-.372A12.216,12.216,0,0,1,4.331.1.458.458,0,0,0,3.885.03,6.473,6.473,0,0,0,0,5.911.454.454,0,0,0,.224,6.3,6.73,6.73,0,0,1,2.78,9.026,5.625,5.625,0,0,0,4.229,10.825Z" transform="translate(0 0)"/>
        <path id="Path_91" data-name="Path 91" class="cls-1" d="M103.039,426.667H87.751a.455.455,0,0,0-.428.607,1.819,1.819,0,0,0,1.708,1.211h12.727a1.819,1.819,0,0,0,1.708-1.211.455.455,0,0,0-.428-.607Z" transform="translate(-83.577 -408.485)"/>
      </g>
    </g>
  </g>
</svg>
