<?xml version="1.0" encoding="iso-8859-1"?>
<!-- Generator: Adobe Illustrator 19.0.0, SVG Export Plug-In . SVG Version: 6.00 Build 0)  -->
<svg version="1.1" id="Capa_1" xmlns="http://www.w3.org/2000/svg" xmlns:xlink="http://www.w3.org/1999/xlink" x="0px" y="0px"
	 viewBox="0 0 512 512" style="enable-background:new 0 0 512 512;" xml:space="preserve">
<g>
	<g>
		<path d="M344.992,7.712C339.2,2.72,331.808,0,324.16,0H256l32,96h160L344.992,7.712z"/>
	</g>
</g>
<g>
	<g>
		<path d="M123.84,0c-7.648,0-15.04,2.72-20.832,7.712L0,96h160l32-96H123.84z"/>
	</g>
</g>
<g>
	<g>
		<path d="M496,352h-16v-32c0-35.296-28.704-64-64-64c-35.296,0-64,28.704-64,64v32h-16c-8.832,0-16,7.168-16,16v128
			c0,8.832,7.168,16,16,16h160c8.832,0,16-7.168,16-16V368C512,359.168,504.832,352,496,352z M448,352h-64v-32
			c0-17.664,14.336-32,32-32s32,14.336,32,32V352z"/>
	</g>
</g>
<g>
	<g>
		<path d="M288,128v96l-32-32l-32,32l-32-32l-32,32v-96H0v288c0,17.664,14.336,32,32,32h256v-80c0-20.864,13.376-38.656,32-45.248
			V320c0-52.928,43.072-96,96-96c11.264,0,21.952,2.304,32,5.888V128H288z"/>
	</g>
</g>
<g>
</g>
<g>
</g>
<g>
</g>
<g>
</g>
<g>
</g>
<g>
</g>
<g>
</g>
<g>
</g>
<g>
</g>
<g>
</g>
<g>
</g>
<g>
</g>
<g>
</g>
<g>
</g>
<g>
</g>
</svg>
