<?xml version="1.0" encoding="iso-8859-1"?>
<!-- Generator: Adobe Illustrator 19.0.0, SVG Export Plug-In . SVG Version: 6.00 Build 0)  -->
<svg version="1.1" id="Capa_1" xmlns="http://www.w3.org/2000/svg" xmlns:xlink="http://www.w3.org/1999/xlink" x="0px" y="0px"
	 viewBox="0 0 512 512" style="enable-background:new 0 0 512 512;" xml:space="preserve">
<g>
	<g>
		<path d="M361,0c-31.666,0-59.432,16.522-75.478,41.31C277.599,34.36,267.345,30,256,30c-11.345,0-21.599,4.36-29.522,11.31
			C210.432,16.522,182.666,0,151,0c-33.091,0-60,26.909-60,60c0,10.977,3.177,21.14,8.344,30H151c-16.538,0-30-13.462-30-30
			s13.462-30,30-30c33.091,0,60,26.909,60,60h90c0-33.091,26.909-60,60-60c16.538,0,30,13.462,30,30s-13.462,30-30,30h51.656
			C417.823,81.14,421,70.977,421,60C421,26.909,394.091,0,361,0z"/>
	</g>
</g>
<g>
	<g>
		<rect y="120" width="241" height="121"/>
	</g>
</g>
<g>
	<g>
		<rect x="271" y="120" width="241" height="121"/>
	</g>
</g>
<g>
	<g>
		<rect x="61" y="271" width="180" height="241"/>
	</g>
</g>
<g>
	<g>
		<rect x="271" y="271" width="180" height="241"/>
	</g>
</g>
<g>
</g>
<g>
</g>
<g>
</g>
<g>
</g>
<g>
</g>
<g>
</g>
<g>
</g>
<g>
</g>
<g>
</g>
<g>
</g>
<g>
</g>
<g>
</g>
<g>
</g>
<g>
</g>
<g>
</g>
</svg>
