<svg xmlns="http://www.w3.org/2000/svg" viewBox="0 0 30.083 30"><defs><style>.a{fill:#e70068;}</style></defs><g transform="translate(-476 -807)"><g transform="translate(476 807)"><path class="a" d="M21.443,116.048H1.5a1.5,1.5,0,0,0-1.5,1.5v19.947a1.5,1.5,0,0,0,1.5,1.5H21.443a1.5,1.5,0,0,0,1.5-1.5V117.544A1.5,1.5,0,0,0,21.443,116.048Zm-1.5,19.947H2.992V119.04H19.947Z" transform="translate(0 -108.987)"/><path class="a" d="M401.767,94.806h-1.623V77.346h1.623a.3.3,0,0,0,.21-.506l-2.62-2.62a.3.3,0,0,0-.42,0l-2.62,2.62a.3.3,0,0,0,.21.506h1.623v17.46h-1.623a.3.3,0,0,0-.21.507l2.62,2.62a.3.3,0,0,0,.42,0l2.62-2.62a.3.3,0,0,0-.21-.507Z" transform="translate(-371.981 -69.638)"/><path class="a" d="M29.161,6.422a.3.3,0,0,0,.506-.209V4.59h17.46V6.212a.3.3,0,0,0,.506.209l2.62-2.62a.3.3,0,0,0,0-.42L47.633.763a.3.3,0,0,0-.506.209V2.6H29.667V.972a.3.3,0,0,0-.506-.209L26.541,3.383a.3.3,0,0,0,0,.42Z" transform="translate(-24.835 -0.676)"/></g><rect class="a" width="19.052" height="19.052" transform="translate(478.005 816.025)"/></g></svg>