<svg id="instagram" xmlns="http://www.w3.org/2000/svg" viewBox="0 0 40 40">
  <g id="Group_387" data-name="Group 387">
    <g id="Group_386" data-name="Group 386">
      <path id="Path_116" data-name="Path 116" d="M27.5,0h-15A12.5,12.5,0,0,0,0,12.5v15A12.5,12.5,0,0,0,12.5,40h15A12.5,12.5,0,0,0,40,27.5v-15A12.5,12.5,0,0,0,27.5,0Zm8.75,27.5a8.76,8.76,0,0,1-8.75,8.75h-15A8.76,8.76,0,0,1,3.75,27.5v-15A8.76,8.76,0,0,1,12.5,3.75h15a8.76,8.76,0,0,1,8.75,8.75Z"/>
    </g>
  </g>
  <g id="Group_389" data-name="Group 389" transform="translate(10 10)">
    <g id="Group_388" data-name="Group 388">
      <path id="Path_117" data-name="Path 117" d="M138,128a10,10,0,1,0,10,10A10,10,0,0,0,138,128Zm0,16.25a6.25,6.25,0,1,1,6.25-6.25A6.259,6.259,0,0,1,138,144.25Z" transform="translate(-128 -128)"/>
    </g>
  </g>
  <g id="Group_391" data-name="Group 391" transform="translate(29.418 7.918)">
    <g id="Group_390" data-name="Group 390">
      <circle id="Ellipse_10" data-name="Ellipse 10" cx="1.332" cy="1.332" r="1.332"/>
    </g>
  </g>
</svg>
