<svg xmlns="http://www.w3.org/2000/svg" viewBox="0 0 9.035 20">
  <defs>
    <style>
      .cls-1 {
        fill: #e70068;
      }
    </style>
  </defs>
  <g id="key" transform="translate(-140.358)">
    <g id="Group_332" data-name="Group 332" transform="translate(140.359)">
      <g id="Group_331" data-name="Group 331">
        <path id="Path_100" data-name="Path 100" class="cls-1" d="M148.048,1.3A4.484,4.484,0,0,0,144.877,0h-.065a4.52,4.52,0,0,0-3.4,7.421h6.926a4.521,4.521,0,0,0-.291-6.12Zm-4.753,2.856a1.594,1.594,0,0,1,3.163,0Z" transform="translate(-140.359)"/>
      </g>
    </g>
    <g id="Group_334" data-name="Group 334" transform="translate(142.478 8.62)">
      <g id="Group_333" data-name="Group 333">
        <path id="Path_101" data-name="Path 101" class="cls-1" d="M199.414,222.478v-1.8h-4.8v8.982a2.4,2.4,0,1,0,4.8,0v-1.337a.6.6,0,0,0-.175-.424l-.826-.826.558-.149a.6.6,0,0,0,.444-.579v-1.892a.6.6,0,0,0-.175-.424l-.826-.826.558-.149A.6.6,0,0,0,199.414,222.478Z" transform="translate(-194.619 -220.683)"/>
      </g>
    </g>
  </g>
</svg>
