<?xml version="1.0" encoding="iso-8859-1"?>
<!-- Generator: Adobe Illustrator 19.0.0, SVG Export Plug-In . SVG Version: 6.00 Build 0)  -->
<svg version="1.1" id="Capa_1" xmlns="http://www.w3.org/2000/svg" xmlns:xlink="http://www.w3.org/1999/xlink" x="0px" y="0px"
	 viewBox="0 0 512.001 512.001" style="enable-background:new 0 0 512.001 512.001;" xml:space="preserve">
<g>
	<g>
		<path d="M464.877,112.43h-14.242c8.55-11.962,13.176-26.228,13.176-41.213c0-19.048-7.447-36.952-20.966-50.408
			c-27.858-27.745-73.185-27.746-101.041,0l-85.805,85.45l-85.794-85.453c-27.86-27.731-73.189-27.731-101.049,0
			C55.634,34.265,48.189,52.168,48.189,71.217c0,14.986,4.626,29.252,13.175,41.213h-14.24c-8.285,0-15.001,6.716-15.001,15.001
			v112.471c0,8.285,6.716,15.001,15.001,15.001h17.134v242.095c0,8.285,6.716,15.001,15.001,15.001h161.74V142.432h14.999h15.003
			v369.569h161.741c8.285,0,15.001-6.716,15.001-15.001V254.903h17.134c8.285,0,15.001-6.716,15.001-15.001V127.431
			C479.878,119.145,473.162,112.43,464.877,112.43z M120.407,112.43h-0.32c-11.271,0.107-21.83-4.162-29.763-12.065
			c-7.823-7.788-12.132-18.139-12.132-29.148s4.309-21.361,12.131-29.147c8.096-8.058,18.726-12.085,29.359-12.085
			c10.63,0,21.263,4.027,29.354,12.082l70.645,70.363H120.407z M421.675,100.366c-7.935,7.9-18.456,12.173-29.76,12.064h-0.323
			h-99.272l70.656-70.364c16.185-16.117,42.517-16.116,58.701,0.003c7.823,7.788,12.132,18.139,12.132,29.148
			S429.499,92.576,421.675,100.366z"/>
	</g>
</g>
<g>
</g>
<g>
</g>
<g>
</g>
<g>
</g>
<g>
</g>
<g>
</g>
<g>
</g>
<g>
</g>
<g>
</g>
<g>
</g>
<g>
</g>
<g>
</g>
<g>
</g>
<g>
</g>
<g>
</g>
</svg>
