<svg xmlns="http://www.w3.org/2000/svg" viewBox="0 0 50.009 50">
  <defs>
    <style>
      .cls-1 {
        fill: #e70068;
      }
    </style>
  </defs>
  <g id="refresh_1_" data-name="refresh (1)" transform="translate(0 -0.044)">
    <g id="Group_269" data-name="Group 269" transform="translate(1.141 28.104)">
      <g id="Group_268" data-name="Group 268">
        <path id="Path_87" data-name="Path 87" class="cls-1" d="M59.292,278.152a2.708,2.708,0,0,0-1.934-.807H43.683a2.731,2.731,0,0,0-2.73,2.731v2.317a2.766,2.766,0,0,0,2.73,2.766H47.3a17.716,17.716,0,0,1-12.237,5.09,17.227,17.227,0,0,1-16.237-11.521,3.906,3.906,0,1,0-7.375,2.574,25.012,25.012,0,0,0,40.832,9.868v2.563a2.783,2.783,0,0,0,2.767,2.755h2.317a2.751,2.751,0,0,0,2.73-2.755V280.086A2.706,2.706,0,0,0,59.292,278.152Z" transform="translate(-11.23 -276.108)"/>
      </g>
    </g>
    <g id="Group_271" data-name="Group 271" transform="translate(0 0.044)">
      <g id="Group_270" data-name="Group 270" transform="translate(0 0)">
        <path id="Path_88" data-name="Path 88" class="cls-1" d="M48.65,16.788A25.015,25.015,0,0,0,7.814,6.921V4.358A2.78,2.78,0,0,0,5.051,1.6H2.734A2.755,2.755,0,0,0,0,4.358V18.006a2.7,2.7,0,0,0,.807,1.928,2.71,2.71,0,0,0,1.936.806l-.008.006H16.417a2.728,2.728,0,0,0,2.727-2.73V15.7a2.758,2.758,0,0,0-2.727-2.766H12.8a17.716,17.716,0,0,1,12.237-5.09A17.226,17.226,0,0,1,41.274,19.363a3.906,3.906,0,1,0,7.375-2.575Z" transform="translate(0 -0.044)"/>
      </g>
    </g>
  </g>
</svg>
