<?xml version="1.0" encoding="iso-8859-1"?>
<!-- Generator: Adobe Illustrator 21.0.0, SVG Export Plug-In . SVG Version: 6.00 Build 0)  -->
<svg version="1.1" id="Capa_1" xmlns="http://www.w3.org/2000/svg" xmlns:xlink="http://www.w3.org/1999/xlink" x="0px" y="0px"
	 viewBox="0 0 512 512" style="enable-background:new 0 0 512 512;" xml:space="preserve">
<g>
	<g>
		<path d="M191.993,329.843v118.149c0,35.288,28.709,63.998,63.998,63.998c35.288,0,63.997-28.709,63.997-63.998V329.843H191.993z"
			/>
	</g>
</g>
<g>
	<g>
		<path d="M467.694,61.546h-9.872v-7.384c0-29.859-24.292-54.152-54.152-54.152H54.152C24.292,0.01,0,24.302,0,54.162v44.306
			c0,29.859,24.292,54.152,54.152,54.152h349.517c29.859,0,54.152-24.292,54.152-54.152v-7.384h9.872
			c8.143,0,14.769,6.625,14.769,14.769v61.52c0,8.143-6.625,14.769-14.769,14.769H285.527c-24.43,0-44.306,19.876-44.306,44.306
			v14.784h-63.998c-8.156,0-14.769,6.612-14.769,14.769s6.612,14.769,14.769,14.769h14.769v29.537h127.995v-29.537h14.769
			c8.156,0,14.769-6.612,14.769-14.769s-6.612-14.769-14.769-14.769h-63.998v-14.784c0-8.143,6.625-14.769,14.769-14.769h182.167
			c24.43,0,44.306-19.876,44.306-44.306v-61.52C512,81.422,492.124,61.546,467.694,61.546z"/>
	</g>
</g>
<g>
</g>
<g>
</g>
<g>
</g>
<g>
</g>
<g>
</g>
<g>
</g>
<g>
</g>
<g>
</g>
<g>
</g>
<g>
</g>
<g>
</g>
<g>
</g>
<g>
</g>
<g>
</g>
<g>
</g>
</svg>
