<?xml version="1.0" encoding="iso-8859-1"?>
<!-- Generator: Adobe Illustrator 19.0.0, SVG Export Plug-In . SVG Version: 6.00 Build 0)  -->
<svg version="1.1" id="Capa_1" xmlns="http://www.w3.org/2000/svg" xmlns:xlink="http://www.w3.org/1999/xlink" x="0px" y="0px"
	 viewBox="0 0 512 512" style="enable-background:new 0 0 512 512;" xml:space="preserve">
<g>
	<g>
		<path d="M471.693,103.943c-15.911-15.911-7.425-24.396-23.336-40.307c-15.909-15.909-24.394-7.423-40.303-23.332
			S400.63,15.909,384.721,0l-1.442,1.442c-35.147,35.147-35.147,92.132,0,127.279c35.147,35.147,92.132,35.147,127.279,0
			l1.442-1.442C496.089,111.37,487.604,119.854,471.693,103.943z"/>
	</g>
</g>
<g>
	<g>
		<path d="M128.721,383.279c-35.147-35.146-92.132-35.146-127.279,0.001L0,384.721c15.909,15.909,24.394,7.424,40.304,23.333
			c15.909,15.908,7.423,24.394,23.332,40.302c15.911,15.911,24.396,7.426,40.307,23.336c15.911,15.911,7.426,24.396,23.336,40.307
			l1.442-1.442C163.868,475.411,163.868,418.426,128.721,383.279z"/>
	</g>
</g>
<g>
	<g>
		<path d="M362.067,149.935c-40.714-40.714-99.007-53.12-150.444-37.239c49.202,50.97,54.331,97.053,59.285,141.649
			c4.702,42.311,9.142,82.274,54.035,127.168l5.018,5.019c11.492-6.52,22.309-14.669,32.106-24.465
			C420.646,303.487,420.646,208.513,362.067,149.935z"/>
	</g>
</g>
<g>
	<g>
		<path d="M241.092,257.656c-4.701-42.31-9.142-82.274-54.035-127.168l-5.018-5.019c-11.491,6.52-22.309,14.669-32.105,24.465
			c-58.579,58.579-58.579,153.553,0,212.132c40.714,40.714,99.006,53.12,150.443,37.239
			C251.175,348.335,246.047,302.252,241.092,257.656z"/>
	</g>
</g>
<g>
</g>
<g>
</g>
<g>
</g>
<g>
</g>
<g>
</g>
<g>
</g>
<g>
</g>
<g>
</g>
<g>
</g>
<g>
</g>
<g>
</g>
<g>
</g>
<g>
</g>
<g>
</g>
<g>
</g>
</svg>
