<svg xmlns="http://www.w3.org/2000/svg" viewBox="0 0 67.834 50">
  <defs>
    <style>
      .cls-1 {
        fill: #e70068;
      }
    </style>
  </defs>
  <path id="wedding-gift" class="cls-1" d="M0,28V41.057H4.777V78h58.6V41.057h4.459V28ZM45.793,59.168c-1.859,3.159-11.6,9.483-11.6,9.483S24.42,62.3,22.573,59.168A9.577,9.577,0,0,1,21.1,53.6c.193-4.025,3.139-7.349,6.747-7.349A9.418,9.418,0,0,1,34.183,49.2s2.785-2.954,6.335-2.954c3.608,0,6.554,3.324,6.747,7.349A9.577,9.577,0,0,1,45.793,59.168Z" transform="translate(0 -28)"/>
</svg>
