<svg xmlns="http://www.w3.org/2000/svg" viewBox="0 0 59.998 60">
  <defs>
    <style>
      .cls-1 {
        fill: #e70068;
      }
    </style>
  </defs>
  <path id="Path_111" data-name="Path 111" class="cls-1" d="M30,0A30,30,0,1,0,60,30,30,30,0,0,0,30,0Zm2.072,33.668a2.023,2.023,0,0,1-.024.237c-.008.059-.011.12-.025.178s-.036.12-.056.181a2.122,2.122,0,0,1-.076.215c-.006.012-.008.025-.013.037a2.056,2.056,0,0,1-.155.272l-.012.016a2.065,2.065,0,0,1-.218.265c-.022.022-.044.043-.067.064a1.987,1.987,0,0,1-.219.181c-.024.017-.047.035-.072.052a2.076,2.076,0,0,1-.311.169c-.023.01-.048.017-.072.026a2.085,2.085,0,0,1-.279.087c-.034.008-.068.016-.1.022a2.066,2.066,0,0,1-.372.038c-.025,0-.051-.008-.077-.009a2.087,2.087,0,0,1-.354-.038c-.036-.008-.071-.023-.107-.033a2.106,2.106,0,0,1-.311-.106c-.011-.006-.023-.007-.035-.012l-11.5-5.426a2.075,2.075,0,0,1,1.77-3.753l8.543,4.029V12.45a2.075,2.075,0,1,1,4.15,0V33.63h0C32.076,33.643,32.072,33.655,32.072,33.668Z" transform="translate(-0.002)"/>
</svg>
