<svg xmlns="http://www.w3.org/2000/svg" viewBox="0 0 43.945 50">
  <defs>
    <style>
      .cls-1 {
        fill: #e70068;
      }
    </style>
  </defs>
  <g id="gift-box" transform="translate(-31)">
    <g id="Group_309" data-name="Group 309" transform="translate(34.418 25.586)">
      <g id="Group_308" data-name="Group 308" transform="translate(0)">
        <path id="Path_92" data-name="Path 92" class="cls-1" d="M66,262v21a3.422,3.422,0,0,0,3.418,3.418h9.766V262Z" transform="translate(-66 -262)"/>
      </g>
    </g>
    <g id="Group_311" data-name="Group 311" transform="translate(50.531 25.586)">
      <g id="Group_310" data-name="Group 310">
        <rect id="Rectangle_142" data-name="Rectangle 142" class="cls-1" width="4.883" height="24.414"/>
      </g>
    </g>
    <g id="Group_313" data-name="Group 313" transform="translate(58.344 25.586)">
      <g id="Group_312" data-name="Group 312" transform="translate(0)">
        <path id="Path_93" data-name="Path 93" class="cls-1" d="M311,262v24.414h9.766A3.422,3.422,0,0,0,324.184,283V262Z" transform="translate(-311 -262)"/>
      </g>
    </g>
    <g id="Group_315" data-name="Group 315" transform="translate(47.602 13.867)">
      <g id="Group_314" data-name="Group 314" transform="translate(0)">
        <rect id="Rectangle_143" data-name="Rectangle 143" class="cls-1" width="10.742" height="8.789"/>
      </g>
    </g>
    <g id="Group_317" data-name="Group 317" transform="translate(31 13.867)">
      <g id="Group_316" data-name="Group 316" transform="translate(0)">
        <path id="Path_94" data-name="Path 94" class="cls-1" d="M34.418,142A3.422,3.422,0,0,0,31,145.418v1.953a3.422,3.422,0,0,0,3.418,3.418H44.672V142Z" transform="translate(-31 -142)"/>
      </g>
    </g>
    <g id="Group_319" data-name="Group 319" transform="translate(61.273 13.867)">
      <g id="Group_318" data-name="Group 318">
        <path id="Path_95" data-name="Path 95" class="cls-1" d="M351.254,142H341v8.789h10.254a3.422,3.422,0,0,0,3.418-3.418v-1.953A3.422,3.422,0,0,0,351.254,142Z" transform="translate(-341 -142)"/>
      </g>
    </g>
    <g id="Group_321" data-name="Group 321" transform="translate(37.641)">
      <g id="Group_320" data-name="Group 320">
        <path id="Path_96" data-name="Path 96" class="cls-1" d="M121.266,0a8.4,8.4,0,0,0-6.934,3.666,8.4,8.4,0,0,0-14.939,7.272h3.164A5.468,5.468,0,1,1,112.867,8.4v2.539h2.93V8.4a5.469,5.469,0,1,1,10.31,2.539h3.164A8.4,8.4,0,0,0,121.266,0Z" transform="translate(-99)"/>
      </g>
    </g>
  </g>
</svg>
