<svg xmlns="http://www.w3.org/2000/svg" viewBox="0 0 108.366 40.401"><defs><style>.a{fill:#fffab9;}</style></defs><g transform="translate(-0.406 -0.029)"><path class="a" d="M7.047.29A8.255,8.255,0,0,1,.406-2.755L3.219-5.887a5.187,5.187,0,0,0,3.712,2.03q2.726,0,2.726-3.364V-20.3h4.582V-7.018A7.335,7.335,0,0,1,12.325-1.6,7.135,7.135,0,0,1,7.047.29ZM23.49.29A4.976,4.976,0,0,1,19.6-1.247a6.076,6.076,0,0,1-1.392-4.234V-15.544H22.62v8.671a3.513,3.513,0,0,0,.7,2.349,2.456,2.456,0,0,0,1.972.812A2.59,2.59,0,0,0,27.3-4.524a3.373,3.373,0,0,0,.739-2.349v-8.671h4.408V0H28.043V-2.2A5.67,5.67,0,0,1,23.49.29ZM36.395,0V-15.544H40.8v2.2a5.693,5.693,0,0,1,4.582-2.494,4.523,4.523,0,0,1,4.379,2.465,6.5,6.5,0,0,1,5.1-2.465,5.057,5.057,0,0,1,3.872,1.464,5.976,5.976,0,0,1,1.377,4.249V0H55.709V-8.671q0-3.161-2.581-3.161a2.465,2.465,0,0,0-1.958.812,3.464,3.464,0,0,0-.71,2.349V0H46.052V-8.671q0-3.161-2.581-3.161a2.465,2.465,0,0,0-1.958.812,3.464,3.464,0,0,0-.71,2.349V0ZM73.2.29a6.066,6.066,0,0,1-4.843-2.32V0H63.945V-21.17h4.408v7.859A5.746,5.746,0,0,1,73.2-15.834a6.675,6.675,0,0,1,4.988,2.175,8.186,8.186,0,0,1,2.088,5.916A8.127,8.127,0,0,1,78.2-1.871,6.682,6.682,0,0,1,73.2.29ZM69.382-4.655a3.473,3.473,0,0,0,2.682,1.2,3.517,3.517,0,0,0,2.7-1.2,4.477,4.477,0,0,0,1.1-3.147,4.4,4.4,0,0,0-1.1-3.089,3.517,3.517,0,0,0-2.7-1.2,3.473,3.473,0,0,0-2.682,1.2,4.513,4.513,0,0,0-1.088,3.147A4.431,4.431,0,0,0,69.382-4.655ZM83.723,0V-21.17h4.408V0ZM99.644.348A7.978,7.978,0,0,1,93.815-1.9a7.824,7.824,0,0,1-2.291-5.844A8.14,8.14,0,0,1,93.7-13.485a7.184,7.184,0,0,1,5.51-2.349,6.772,6.772,0,0,1,5.626,2.436,9.323,9.323,0,0,1,1.943,6q0,.348-.058,1.16H95.9a3.791,3.791,0,0,0,1.305,2.262A3.886,3.886,0,0,0,99.7-3.19a5.416,5.416,0,0,0,3.77-1.6L106-2.552A7.744,7.744,0,0,1,99.644.348Zm-3.8-9.338h6.641a4.2,4.2,0,0,0-1.059-2.407,2.924,2.924,0,0,0-2.218-.9,3.009,3.009,0,0,0-2.218.884A4.349,4.349,0,0,0,95.845-8.99Z" transform="translate(0 21.199)"/><path class="a" d="M5.12.2A7.258,7.258,0,0,1,.52-1.42l1.3-2A5.8,5.8,0,0,0,5.2-2.14q1.28,0,1.28-.84a.693.693,0,0,0-.03-.2.426.426,0,0,0-.11-.18,1.823,1.823,0,0,0-.17-.15,1.27,1.27,0,0,0-.24-.14l-.26-.12q-.11-.05-.31-.12T5.02-4l-.38-.11-.38-.11a9.274,9.274,0,0,1-1.15-.41,5.834,5.834,0,0,1-.99-.58,2.4,2.4,0,0,1-.79-.94,3.076,3.076,0,0,1-.27-1.33A3.035,3.035,0,0,1,2.18-9.97a4.3,4.3,0,0,1,2.8-.91,7.015,7.015,0,0,1,4,1.24L7.82-7.54a6.013,6.013,0,0,0-2.9-1q-1.12,0-1.12.78,0,.54,1.84,1.16.22.08.34.12.54.18.92.34a7.58,7.58,0,0,1,.86.44,3.378,3.378,0,0,1,.77.59,2.615,2.615,0,0,1,.49.79,2.73,2.73,0,0,1,.2,1.06A3.066,3.066,0,0,1,8.09-.67,4.737,4.737,0,0,1,5.12.2Zm8.4-.12-3.3-10.8H13.3l1.72,6.5,2.02-6.54h2.62L21.7-4.2l1.76-6.52h3.02L23.14.08H20.4L18.34-6.5,16.24.08ZM32.9.24a5.5,5.5,0,0,1-4.02-1.55A5.4,5.4,0,0,1,27.3-5.34,5.614,5.614,0,0,1,28.8-9.3a4.955,4.955,0,0,1,3.8-1.62,4.67,4.67,0,0,1,3.88,1.68A6.43,6.43,0,0,1,37.82-5.1q0,.24-.04.8H30.32a2.614,2.614,0,0,0,.9,1.56,2.68,2.68,0,0,0,1.72.54,3.735,3.735,0,0,0,2.6-1.1l1.74,1.54A5.34,5.34,0,0,1,32.9.24ZM30.28-6.2h4.58a2.894,2.894,0,0,0-.73-1.66,2.017,2.017,0,0,0-1.53-.62,2.075,2.075,0,0,0-1.53.61A3,3,0,0,0,30.28-6.2ZM45.16.24a5.5,5.5,0,0,1-4.02-1.55,5.4,5.4,0,0,1-1.58-4.03,5.614,5.614,0,0,1,1.5-3.96,4.955,4.955,0,0,1,3.8-1.62,4.67,4.67,0,0,1,3.88,1.68A6.43,6.43,0,0,1,50.08-5.1q0,.24-.04.8H42.58a2.614,2.614,0,0,0,.9,1.56,2.68,2.68,0,0,0,1.72.54,3.735,3.735,0,0,0,2.6-1.1l1.74,1.54A5.34,5.34,0,0,1,45.16.24ZM42.54-6.2h4.58a2.894,2.894,0,0,0-.73-1.66,2.017,2.017,0,0,0-1.53-.62,2.075,2.075,0,0,0-1.53.61A3,3,0,0,0,42.54-6.2ZM55.96.18a3.334,3.334,0,0,1-2.31-.73,3.229,3.229,0,0,1-.81-2.49V-8.12H51.56v-2.6h1.28v-2.74h3.04v2.74H58.4v2.6H55.88v4.58q0,1.04.98,1.04a3.1,3.1,0,0,0,1.5-.38V-.44A4.6,4.6,0,0,1,55.96.18ZM64.4.2a7.258,7.258,0,0,1-4.6-1.62l1.3-2a5.8,5.8,0,0,0,3.38,1.28q1.28,0,1.28-.84a.693.693,0,0,0-.03-.2.425.425,0,0,0-.11-.18,1.823,1.823,0,0,0-.17-.15,1.27,1.27,0,0,0-.24-.14l-.26-.12q-.11-.05-.31-.12T64.3-4l-.38-.11-.38-.11a9.274,9.274,0,0,1-1.15-.41,5.834,5.834,0,0,1-.99-.58,2.4,2.4,0,0,1-.79-.94,3.076,3.076,0,0,1-.27-1.33,3.035,3.035,0,0,1,1.12-2.49,4.3,4.3,0,0,1,2.8-.91,7.015,7.015,0,0,1,4,1.24L67.1-7.54a6.013,6.013,0,0,0-2.9-1q-1.12,0-1.12.78,0,.54,1.84,1.16.22.08.34.12.54.18.92.34a7.58,7.58,0,0,1,.86.44,3.378,3.378,0,0,1,.77.59,2.616,2.616,0,0,1,.49.79,2.73,2.73,0,0,1,.2,1.06A3.066,3.066,0,0,1,67.37-.67,4.737,4.737,0,0,1,64.4.2Z" transform="translate(40.273 40.19)"/></g></svg>